<?xml version="1.0" encoding="UTF-8" standalone="no"?>
<svg width="200px" height="200px" viewBox="0 0 200 200" version="1.1" xmlns="http://www.w3.org/2000/svg" xmlns:xlink="http://www.w3.org/1999/xlink">
    <!-- Generator: Sketch 40.3 (33839) - http://www.bohemiancoding.com/sketch -->
    <title>Shape</title>
    <desc>Created with Sketch.</desc>
    <defs></defs>
    <g id="Page-1" stroke="none" stroke-width="1" fill="none" fill-rule="evenodd">
        <path d="M44.4444444,133.333333 L44.4444444,155.555556 L155.555556,155.555556 L155.555556,133.333333 L44.4444444,133.333333 L44.4444444,133.333333 Z M0,200 L200,200 L200,177.777778 L0,177.777778 L0,200 L0,200 Z M0,111.111111 L200,111.111111 L200,88.8888889 L0,88.8888889 L0,111.111111 L0,111.111111 Z M44.4444444,44.4444444 L44.4444444,66.6666667 L155.555556,66.6666667 L155.555556,44.4444444 L44.4444444,44.4444444 L44.4444444,44.4444444 Z M0,0 L0,22.2222222 L200,22.2222222 L200,0 L0,0 L0,0 Z" id="Shape" fill="#000000"></path>
    </g>
</svg>