<?xml version="1.0" encoding="UTF-8" standalone="no"?>
<svg width="154px" height="200px" viewBox="0 0 154 200" version="1.1" xmlns="http://www.w3.org/2000/svg" xmlns:xlink="http://www.w3.org/1999/xlink">
    <!-- Generator: Sketch 40.3 (33839) - http://www.bohemiancoding.com/sketch -->
    <title>Fill 4</title>
    <desc>Created with Sketch.</desc>
    <defs></defs>
    <g id="Page-1" stroke="none" stroke-width="1" fill="none" fill-rule="evenodd">
        <path d="M122.857143,97 C136.714286,87.4285714 146.428571,71.7142857 146.428571,57.1428571 C146.428571,24.8571429 121.428571,0 89.2857143,0 L0,0 L0,200 L100.571429,200 C130.428571,200 153.571429,175.714286 153.571429,145.857143 C153.571429,124.142857 141.285714,105.571429 122.857143,97 L122.857143,97 Z M42.8571429,35.7142857 L85.7142857,35.7142857 C97.5714286,35.7142857 107.142857,45.2857143 107.142857,57.1428571 C107.142857,69 97.5714286,78.5714286 85.7142857,78.5714286 L42.8571429,78.5714286 L42.8571429,35.7142857 Z M92.8571429,164.285714 L42.8571429,164.285714 L42.8571429,121.428571 L92.8571429,121.428571 C104.714286,121.428571 114.285714,131 114.285714,142.857143 C114.285714,154.714286 104.714286,164.285714 92.8571429,164.285714 L92.8571429,164.285714 Z" id="Fill-4" fill="#B4B4B4"></path>
    </g>
</svg>