<?xml version="1.0" encoding="UTF-8" standalone="no"?>
<svg width="200px" height="200px" viewBox="0 0 200 200" version="1.1" xmlns="http://www.w3.org/2000/svg" xmlns:xlink="http://www.w3.org/1999/xlink">
    <!-- Generator: Sketch 40 (33762) - http://www.bohemiancoding.com/sketch -->
    <title>Group 3</title>
    <desc>Created with Sketch.</desc>
    <defs></defs>
    <g id="Page-1" stroke="none" stroke-width="1" fill="none" fill-rule="evenodd">
        <g id="Group-3" fill="#144273">
            <path d="M199.063529,100.045098 C199.063529,91.6529412 194.153725,83.7941176 185.624314,77.0294118 C189.628235,66.9039216 189.949804,57.645098 185.753725,50.3784314 C181.561569,43.1117647 173.381176,38.7588235 162.612549,37.1666667 C161.016471,26.3980392 156.663529,18.2176471 149.396863,14.0215686 C142.130196,9.8254902 132.871373,10.1470588 122.745882,14.1509804 C115.981176,5.62156863 108.122353,0.711764706 99.7301961,0.711764706 C91.3380392,0.711764706 83.4831373,5.62156863 76.7145098,14.1509804 C66.5929412,10.1470588 57.3341176,9.8254902 50.067451,14.0215686 C42.7968627,18.2176471 38.4478431,26.3980392 36.8517647,37.1666667 C26.0831373,38.7588235 17.9027451,43.1117647 13.7066667,50.3784314 C9.51058824,57.645098 9.83215686,66.9039216 13.8360784,77.0294118 C5.30666667,83.7941176 0.400784314,91.6529412 0.400784314,100.045098 C0.400784314,108.437255 5.30666667,116.296078 13.8360784,123.060784 C9.83215686,133.186275 9.51058824,142.445098 13.7066667,149.711765 C17.9027451,156.978431 26.0831373,161.331373 36.8517647,162.923529 C38.4478431,173.692157 42.7968627,181.872549 50.067451,186.068627 C57.3341176,190.264706 66.5929412,189.943137 76.7145098,185.939216 C83.4831373,194.468627 91.3380392,199.378431 99.7301961,199.378431 C108.122353,199.378431 115.981176,194.468627 122.745882,185.939216 C132.871373,189.943137 142.130196,190.264706 149.396863,186.068627 C156.663529,181.872549 161.016471,173.692157 162.612549,162.923529 C173.381176,161.331373 181.561569,156.978431 185.753725,149.711765 C189.949804,142.445098 189.628235,133.186275 185.624314,123.060784 C194.153725,116.296078 199.063529,108.437255 199.063529,100.045098 M99.7301961,171.35098 C60.3498039,171.35098 28.4243137,139.42549 28.4243137,100.045098 C28.4243137,60.6647059 60.3498039,28.7392157 99.7301961,28.7392157 C139.11451,28.7392157 171.036078,60.6647059 171.036078,100.045098 C171.036078,139.42549 139.11451,171.35098 99.7301961,171.35098" id="Fill-32"></path>
            <path d="M99.7317647,36.1890196 C64.465098,36.1890196 35.8768627,64.7772549 35.8768627,100.043922 C35.8768627,135.310588 64.465098,163.902745 99.7317647,163.902745 C134.998431,163.902745 163.586667,135.310588 163.586667,100.043922 C163.586667,64.7772549 134.998431,36.1890196 99.7317647,36.1890196 M137.825882,73.8556863 L98.0572549,139.683137 C96.947451,141.506667 94.9709804,142.616471 92.8415686,142.616471 L92.8219608,142.616471 C90.6847059,142.608627 88.7043137,141.483137 87.6062745,139.651765 L61.574902,96.2047059 C60.0376471,93.6360784 60.5905882,90.3262745 62.8886275,88.3968627 C65.1788235,86.467451 68.5356863,86.494902 70.8062745,88.4596078 L92.2964706,107.071373 L128.061176,66.6164706 C130.163137,64.267451 133.708235,63.9066667 136.249412,65.785098 C138.782745,67.6596078 139.465098,71.1615686 137.825882,73.8556863" id="Fill-34"></path>
        </g>
    </g>
</svg>