<?xml version="1.0" encoding="UTF-8" standalone="no"?>
<svg width="200px" height="200px" viewBox="0 0 200 200" version="1.1" xmlns="http://www.w3.org/2000/svg" xmlns:xlink="http://www.w3.org/1999/xlink">
    <!-- Generator: Sketch 40 (33762) - http://www.bohemiancoding.com/sketch -->
    <title>Fill 30</title>
    <desc>Created with Sketch.</desc>
    <defs></defs>
    <g id="Page-1" stroke="none" stroke-width="1" fill="none" fill-rule="evenodd">
        <path d="M100,200 C155.229167,200 200,155.229167 200,100 C200,44.7708333 155.229167,0 100,0 C44.7708333,0 0,44.7708333 0,100 C0,155.229167 44.7708333,200 100,200 L100,200 Z M158.483333,159.879167 L155.2125,152.675 L162.6,139.2875 L174.579167,137.991667 C170.408333,146.145833 164.979167,153.5375 158.483333,159.879167 L158.483333,159.879167 Z M109.7875,16.8375 C146.35,21.1166667 175.741667,49 182.3375,84.8125 L172.970833,97.2958333 L162.1625,102.704167 L151.35,91.8916667 L145.558333,81.4666667 C145.558333,81.4666667 153.033333,73.9833333 150.966667,70.0166667 C148.895833,66.05 137.2125,72.5041667 134.904167,69.0333333 C132.591667,65.5541667 134.65,53.6875 134.65,53.6875 L120.1625,47.7208333 C120.1625,47.7208333 115.633333,47.6333333 116.016667,51.0458333 C116.441667,54.8833333 126.979167,60.9625 126.125,62.6666667 C125.341667,64.2375 122.716667,63.0958333 122.716667,63.0958333 L118.7125,70.125 L110.3625,68.2416667 C110.3625,68.2416667 116.708333,65.8375 117.483333,63.5208333 C118.254167,61.2041667 108.108333,52.8666667 108.108333,52.8666667 L102.454167,54.1458333 L99.8958333,64.3708333 L93.0791667,70.3375 L84.1375,70.2708333 L84.9333333,65.3166667 L81.6625,65.225 L85.925,54.1791667 L94.7,54.9083333 C94.7,54.9083333 97.9416667,46.4458333 97.2958333,43.6583333 C96.05,38.2541667 90.4125,37.6416667 90.4125,35.5125 C90.4125,33.3791667 96.4875,33.4125 99.4708333,30.4291667 C101.320833,28.5791667 106.283333,21.7541667 109.7875,16.8375 L109.7875,16.8375 Z M80.6125,18.5708333 C85.6666667,17.3666667 90.8916667,16.6458333 96.25,16.4083333 L97.025,17.6666667 C97.025,17.6666667 95.1041667,27.7916667 91.8916667,28.65 C88.6833333,29.5041667 79.4375,24.1791667 79.4375,24.1791667 L80.6125,18.5708333 Z M76,91.0375 C80.2458333,82.2583333 86.6875,81.3625 86.6875,81.3625 L109.079167,76.8666667 L121.9,84.3708333 L138.995833,87.625 L143.729167,94.1083333 L151.35,104.8625 L162.1625,110.495833 L172.970833,101.275 C172.970833,101.275 171.908333,114.208333 167.645833,122.279167 C163.383333,130.35 152.329167,136.404167 152.329167,136.404167 C152.329167,136.404167 151.275,144 147.7,150.370833 C146.316667,152.8375 142.520833,154.154167 140.820833,156.5875 C137.7625,160.975 138.629167,168.695833 135.133333,170.4125 C128.891667,173.479167 121.625,174.908333 119.920833,173.291667 C117.5375,171.033333 112.2625,161.383333 112.2625,158.1875 L112.2625,135.133333 C112.2625,131 106.741667,121.208333 106.741667,121.208333 C106.741667,121.208333 93.6666667,121.083333 88.65,121.083333 C83.6291667,121.083333 76,113.883333 76,113.883333 C76,113.883333 71.75,99.8125 76,91.0375 L76,91.0375 Z M63.4583333,24.7208333 L53.7458333,42.5333333 C53.7458333,42.5333333 42.3041667,57.4458333 34.3083333,65.5166667 C30.6333333,69.225 25.175,72.1166667 20.3333333,74.1708333 C27.4041667,52.425 43.15,34.6208333 63.4583333,24.7208333 L63.4583333,24.7208333 Z M43.2416667,142.775 L43.2416667,161.454167 C29.4916667,148.741667 20.0291667,131.520833 17.2,112.133333 C26.6375,118.45 43.2416667,131.195833 43.2416667,142.775 L43.2416667,142.775 Z" id="Fill-30" fill="#144273"></path>
    </g>
</svg>