<?xml version="1.0" encoding="UTF-8" standalone="no"?>
<svg width="150px" height="200px" viewBox="0 0 150 200" version="1.1" xmlns="http://www.w3.org/2000/svg" xmlns:xlink="http://www.w3.org/1999/xlink">
    <!-- Generator: Sketch 40 (33762) - http://www.bohemiancoding.com/sketch -->
    <title>Fill 36</title>
    <desc>Created with Sketch.</desc>
    <defs></defs>
    <g id="Page-1" stroke="none" stroke-width="1" fill="none" fill-rule="evenodd">
        <path d="M147.559576,64.2273679 L85.7760076,2.44379937 C84.2098157,0.877607507 82.090056,0 79.8802853,0 L4.16751052,0 C1.86322825,0 0,1.8677288 0,4.16751052 L0,195.83699 C0,198.136772 1.86322825,200 4.16751052,200 L145.835865,200 C148.135647,200 149.998875,198.136772 149.998875,195.83699 L149.998875,70.1185895 C149.998875,67.9088188 149.121267,65.7890592 147.559576,64.2273679 M142.230923,72.3328608 C122.757038,80.4293526 105.074372,83.5527352 70.3931232,83.7777628 C68.0798398,83.795765 66.1671055,81.8830307 66.1806071,79.5652467 C66.4101352,44.8929994 69.5740228,27.2463377 77.6660141,7.77245213 C78.2375841,6.39528342 79.1646977,6.80933414 79.1646977,6.80933414 L79.1646977,66.6666667 C79.1646977,68.9709489 81.0324265,70.8341772 83.3322082,70.8341772 L143.189541,70.8341772 C143.189541,70.8341772 143.603591,71.7612908 142.230923,72.3328608" id="Fill-36" fill="#144273"></path>
    </g>
</svg>