<?xml version="1.0" encoding="UTF-8" standalone="no"?>
<svg width="139px" height="198px" viewBox="0 0 139 198" version="1.1" xmlns="http://www.w3.org/2000/svg" xmlns:xlink="http://www.w3.org/1999/xlink">
    <!-- Generator: Sketch 40 (33762) - http://www.bohemiancoding.com/sketch -->
    <title>Group</title>
    <desc>Created with Sketch.</desc>
    <defs></defs>
    <g id="Page-1" stroke="none" stroke-width="1" fill="none" fill-rule="evenodd">
        <g id="Group" fill="#144273">
            <path d="M94.2269231,65.0492308 C90.3846154,65.0492308 87.2692308,68.1646154 87.2692308,72.0069231 C87.2692308,75.8530769 90.3846154,78.9684615 94.2269231,78.9684615 C98.0692308,78.9684615 101.184615,75.8530769 101.184615,72.0069231 C101.184615,68.1646154 98.0692308,65.0492308 94.2269231,65.0492308" id="Fill-1"></path>
            <path d="M45.5157692,65.0492308 C41.6734615,65.0492308 38.5580769,68.1646154 38.5580769,72.0069231 C38.5580769,75.8530769 41.6734615,78.9684615 45.5157692,78.9684615 C49.3580769,78.9684615 52.4734615,75.8530769 52.4734615,72.0069231 C52.4734615,68.1646154 49.3580769,65.0492308 45.5157692,65.0492308" id="Fill-3"></path>
            <path d="M126.9,90.5630769 C130.511538,76.8976923 130.219231,59.5669231 120.226923,41.64 C115.7,44.2284615 111.026923,46.0207692 105.153846,47.5976923 C103.180769,48.1284615 102.365385,47.5976923 102.25,47.1130769 C122.834615,33.9592308 129.580769,12.1207692 131.642308,2.09384615 C131.984615,0.432307692 130.023077,-0.675384615 128.776923,0.470769231 C116.180769,12.04 100.584615,17.6130769 96.4038462,18.9630769 C79.9807692,11.0092308 59.7538462,10.99 43.3230769,18.9592308 C39.1192308,17.5976923 23.5461538,12.0284615 10.9653846,0.470769231 C9.71923077,-0.675384615 7.75769231,0.432307692 8.1,2.09384615 C10.1615385,12.1207692 16.9076923,33.9592308 37.4923077,47.1130769 C37.3769231,47.5823077 36.5730769,48.0553846 34.5884615,47.5976923 C28.9346154,46.2938462 23.4423077,43.9553846 19.5153846,41.64 C9.52307692,59.5669231 9.23076923,76.8938462 12.8423077,90.5630769 C4.71153846,97.5053846 -2.66923077,109.866923 2.37307692,131.155385 C6.87307692,150.159231 24.4769231,165.593846 41.7730769,174.532308 C37.6576923,177.324615 33.7230769,181.320769 31.3307692,186.459231 C26.2615385,197.363077 33.4730769,198.770769 36.95,196.093846 C39.0730769,194.463077 45.25,186.459231 50.6,185.120769 C55.9538462,183.782308 55.6846154,191.278462 60.5038462,192.616923 C64.3961538,193.697692 66.7115385,187.966923 66.3307692,182.763077 C67.5730769,182.901538 68.7615385,182.982308 69.8730769,182.982308 C70.9807692,182.982308 72.1692308,182.901538 73.4115385,182.763077 C73.0307692,187.966923 75.3461538,193.697692 79.2384615,192.616923 C84.0576923,191.278462 83.7884615,183.782308 89.1423077,185.120769 C94.4961538,186.459231 100.669231,194.463077 102.792308,196.093846 C106.269231,198.770769 113.480769,197.363077 108.411538,186.459231 C106.019231,181.320769 102.084615,177.324615 97.9692308,174.532308 C115.265385,165.593846 132.869231,150.159231 137.369231,131.155385 C142.411538,109.866923 135.030769,97.5053846 126.9,90.5630769 M45.5153846,89.9246154 C35.6192308,89.9246154 27.5961538,81.9053846 27.5961538,72.0092308 C27.5961538,62.1130769 35.6192308,54.09 45.5153846,54.09 C55.4115385,54.09 63.4346154,62.1130769 63.4346154,72.0092308 C63.4346154,81.9053846 55.4115385,89.9246154 45.5153846,89.9246154 M71.2038462,108.774615 C70.8923077,109.186154 70.3384615,109.386154 69.8730769,109.397692 C69.4038462,109.386154 68.85,109.186154 68.5384615,108.774615 C63.4461538,102.016923 59.1192308,102.051538 59.1192308,96.39 C59.1192308,91.4323077 63.8307692,89.1092308 69.8730769,89.1092308 C75.9115385,89.1092308 80.6230769,91.4323077 80.6230769,96.39 C80.6230769,102.051538 76.2961538,102.016923 71.2038462,108.774615 M94.2269231,89.9246154 C84.3307692,89.9246154 76.3076923,81.9053846 76.3076923,72.0092308 C76.3076923,62.1130769 84.3307692,54.09 94.2269231,54.09 C104.123077,54.09 112.146154,62.1130769 112.146154,72.0092308 C112.146154,81.9053846 104.123077,89.9246154 94.2269231,89.9246154" id="Fill-5"></path>
        </g>
    </g>
</svg>