<?xml version="1.0" encoding="UTF-8" standalone="no"?>
<svg width="206px" height="199px" viewBox="0 0 206 199" version="1.1" xmlns="http://www.w3.org/2000/svg" xmlns:xlink="http://www.w3.org/1999/xlink">
    <!-- Generator: Sketch 40.1 (33804) - http://www.bohemiancoding.com/sketch -->
    <title>Group</title>
    <desc>Created with Sketch.</desc>
    <defs></defs>
    <g id="Page-1" stroke="none" stroke-width="1" fill="none" fill-rule="evenodd">
        <g id="Group" transform="translate(-1.000000, 0.000000)" fill="#144273">
            <path d="M100.773077,31.4206923 L106.507692,31.4206923 C109.619231,31.4206923 112.038462,28.7168462 111.696154,25.6245385 L109.430769,5.23992308 C109.103846,2.31684615 106.634615,0.105307692 103.692308,0.105307692 L103.588462,0.105307692 C100.646154,0.105307692 98.1769231,2.31684615 97.85,5.23992308 L95.5846154,25.6245385 C95.2423077,28.7168462 97.6615385,31.4206923 100.773077,31.4206923" id="Fill-7"></path>
            <path d="M43.4115385,53.9091538 C45.3538462,56.3399231 48.9769231,56.5399231 51.1769231,54.3399231 L55.2307692,50.2860769 C57.4307692,48.0860769 57.2307692,44.463 54.8038462,42.5168462 L38.7884615,29.7053077 C36.4923077,27.8706923 33.1807692,28.0514615 31.1,30.1322308 L31.0269231,30.2053077 C28.9461538,32.2860769 28.7615385,35.5976154 30.6,37.8937692 L43.4115385,53.9091538 L43.4115385,53.9091538 Z" id="Fill-9"></path>
            <path d="M163.869231,151.585692 C161.926923,149.154923 158.303846,148.954923 156.103846,151.154923 L152.05,155.208769 C149.85,157.408769 150.05,161.031846 152.476923,162.978 L168.492308,175.789538 C170.788462,177.624154 174.1,177.443385 176.180769,175.362615 L176.253846,175.289538 C178.334615,173.208769 178.519231,169.897231 176.680769,167.601077 L163.869231,151.585692 L163.869231,151.585692 Z" id="Fill-11"></path>
            <path d="M32.3138462,105.614539 L32.3138462,99.8799232 C32.3138462,96.7683848 29.61,94.349154 26.5176923,94.6914617 L6.13307692,96.9568463 C3.21,97.2837694 0.998461538,99.7530002 0.998461538,102.695308 L0.998461538,102.799154 C0.998461538,105.741462 3.21,108.210693 6.13307692,108.537616 L26.5176923,110.803 C29.61,111.145308 32.3138462,108.726077 32.3138462,105.614539" id="Fill-13"></path>
            <path d="M201.145769,96.9576154 L180.761154,94.6922308 C177.668846,94.3499231 174.965,96.7691538 174.965,99.8806923 L174.965,105.615308 C174.965,108.726846 177.668846,111.146077 180.761154,110.803769 L201.145769,108.538385 C204.068846,108.211462 206.280385,105.742231 206.280385,102.799923 L206.280385,102.696077 C206.280385,99.7537692 204.068846,97.2845385 201.145769,96.9576154" id="Fill-16"></path>
            <path d="M51.1773077,151.155692 C48.9773077,148.955692 45.3542308,149.155692 43.4119231,151.586462 L30.6003846,167.601846 C28.7619231,169.898 28.9465385,173.209538 31.0273077,175.286462 L31.1003846,175.363385 C33.1811538,177.440308 36.4888462,177.624923 38.7888462,175.786462 L54.8003846,162.974923 C57.2311538,161.032615 57.4311538,157.409538 55.2311538,155.209538 L51.1773077,151.155692 L51.1773077,151.155692 Z" id="Fill-18"></path>
            <path d="M156.103462,54.3391538 C158.303462,56.5391538 161.926538,56.3391538 163.868846,53.9083846 L176.680385,37.893 C178.518846,35.5968462 178.334231,32.2853077 176.253462,30.2045385 L176.180385,30.1314615 C174.099615,28.0545385 170.791923,27.8699231 168.491923,29.7083846 L152.480385,42.5199231 C150.049615,44.4622308 149.849615,48.0853077 152.049615,50.2853077 L156.103462,54.3391538 L156.103462,54.3391538 Z" id="Fill-20"></path>
            <path d="M157.570385,102.747231 C157.570385,72.9626154 133.424231,48.8164615 103.639615,48.8164615 C73.855,48.8164615 49.7088462,72.9626154 49.7088462,102.747231 C49.7088462,124.443385 62.5511538,143.097231 81.0242308,151.654923 L81.0242308,181.397231 C81.0242308,184.454923 83.0165385,187.158769 85.9434615,188.051077 L91.4626923,189.739538 L91.4626923,194.951077 C91.4626923,196.870308 93.0203846,198.428 94.9434615,198.428 L112.339615,198.428 C114.258846,198.428 115.816538,196.870308 115.816538,194.951077 L115.816538,189.731846 L121.324231,188.051077 C124.247308,187.158769 126.255,184.454923 126.255,181.397231 L126.255,151.654923 C144.728077,143.097231 157.570385,124.443385 157.570385,102.747231 M133.428077,82.2472308 C127.812692,78.7164615 121.185769,76.6510769 114.062692,76.6510769 C93.8857692,76.6510769 77.5280769,93.0087692 77.5280769,113.185692 C77.5280769,120.016462 79.4434615,126.381846 82.7165385,131.843385 L82.6896154,131.835692 C82.6896154,131.835692 82.3973077,132.558769 81.305,132.135692 C77.6973077,130.735692 66.3357692,119.420308 66.3357692,102.747231 C66.3357692,82.1433846 83.0357692,65.4395385 103.639615,65.4395385 C120.793462,65.4395385 132.235769,77.4933846 133.705,81.0010769 C134.074231,81.8895385 133.612692,82.1703077 133.428077,82.2472308" id="Fill-22"></path>
        </g>
    </g>
</svg>