<?xml version="1.0" encoding="UTF-8" standalone="no"?>
<svg width="187px" height="198px" viewBox="0 0 187 198" version="1.1" xmlns="http://www.w3.org/2000/svg" xmlns:xlink="http://www.w3.org/1999/xlink">
    <!-- Generator: Sketch 40 (33762) - http://www.bohemiancoding.com/sketch -->
    <title>Group 4</title>
    <desc>Created with Sketch.</desc>
    <defs></defs>
    <g id="Page-1" stroke="none" stroke-width="1" fill="none" fill-rule="evenodd">
        <g id="Group-4" fill="#144273">
            <path d="M57.192,66.9213333 C56.8542222,65.8902222 55.6275556,63.5702222 51.4542222,63.8946667 C42.2542222,64.6324444 37.4408889,75.2591111 38.0453333,82.548 C38.6453333,89.8768889 43.3164444,89.4991111 44.8675556,89.3791111 C54.1342222,88.6324444 56.4053333,81.2502222 56.4275556,81.1746667 C56.4408889,81.1257778 56.472,81.0813333 56.4853333,81.028 C56.1164444,76.3568889 56.6142222,71.468 57.3431111,67.2991111 C57.2942222,67.1702222 57.232,67.0546667 57.192,66.9213333" id="Fill-24"></path>
            <path d="M186.718222,0.114666667 L0.0515555556,0.114666667 L0.0515555556,131.785778 L53.3848889,131.785778 C53.456,131.972444 53.2071111,132.648 52.1493333,132.985778 L34.1448889,136.523556 L23.3848889,197.621333 L46.7182222,197.621333 L52.5137778,164.705778 L134.256,164.705778 L140.051556,197.621333 L163.384889,197.621333 L152.624889,136.523556 L134.620444,132.985778 C133.562667,132.648 133.313778,131.972444 133.384889,131.785778 L186.718222,131.785778 L186.718222,0.114666667 Z M45.6782222,99.2213333 C45.1448889,99.2657778 44.6204444,99.288 44.1048889,99.288 C35.2337778,99.288 28.8782222,93.0568889 28.0737778,83.3502222 C26.9893333,70.1635556 35.7982222,55.2435556 50.6426667,54.0524444 C54.6782222,53.7324444 57.8515556,54.6213333 60.296,56.048 C61.4648889,54.1413333 63.8293333,53.1857778 66.0737778,53.8924444 C68.7048889,54.7146667 70.1626667,57.488 69.3315556,60.088 C67.016,67.3235556 64.6115556,80.8346667 68.0204444,86.288 C68.7982222,87.528 69.7848889,88.1591111 71.3137778,88.3991111 C73.1404444,88.688 74.816,87.8791111 75.6471111,87.2168889 C75.6337778,86.728 75.7137778,86.2435556 75.8426667,85.7724444 C74.1137778,76.9591111 75.9404444,64.4391111 79.4782222,52.5591111 C79.536,52.3146667 79.6071111,52.0746667 79.7004444,51.8346667 C83.7137778,38.6435556 89.7671111,26.3991111 95.2204444,21.1991111 C96.6915556,19.7991111 98.8737778,19.4168889 100.740444,20.248 C102.607111,21.0746667 103.776,22.9368889 103.687111,24.9546667 C103.664889,25.5057778 102.976,38.4524444 88.8782222,55.9413333 C85.416,67.6791111 83.6915556,79.9102222 86.3048889,86.3057778 C87.3493333,88.8524444 88.6604444,89.3635556 90.4337778,89.3635556 C99.3048889,89.3635556 103.642667,82.5813333 105.100444,79.6657778 C107.713778,74.4213333 107.962667,68.248 105.669333,65.3013333 C105.193778,64.6924444 103.736,62.8346667 99.0426667,63.7635556 C96.3271111,64.2968889 93.7004444,62.568 93.1582222,59.8924444 C92.616,57.2168889 94.3715556,54.6168889 97.0826667,54.0835556 C106.473778,52.2257778 111.464889,56.5413333 113.598222,59.2835556 C118.269333,65.2835556 118.460444,75.2302222 114.069333,84.0302222 C109.318222,93.5546667 100.482667,99.2391111 90.4337778,99.2391111 C86.6204444,99.2391111 83.3582222,97.9857778 80.8382222,95.648 C78.4426667,97.2302222 75.3715556,98.3324444 72.0604444,98.3324444 C71.296,98.3324444 70.5226667,98.2746667 69.7404444,98.1546667 C65.9004444,97.5502222 62.7671111,95.6391111 60.4915556,92.7235556 C57.3626667,95.8124444 52.6471111,98.6613333 45.6782222,99.2213333 L45.6782222,99.2213333 Z M54.8337778,151.536889 L58.3137778,131.785778 L128.456,131.785778 L131.936,151.536889 L54.8337778,151.536889 Z M161.731556,83.968 C160.096,89.3591111 153.642667,99.2613333 140.753778,99.2613333 C140.371556,99.2613333 139.984889,99.2524444 139.589333,99.2346667 C128.913778,98.7502222 121.598222,90.6524444 121.389333,79.0791111 C121.189333,67.7857778 128.527111,55.1768889 142.531556,54.0524444 C152.264889,53.248 158.131556,59.5546667 160.033778,63.3946667 C161.247111,65.8435556 160.220444,68.8035556 157.740444,69.9991111 C155.282667,71.1902222 152.309333,70.1991111 151.078222,67.7902222 C150.816,67.3057778 148.567111,63.4346667 143.340444,63.8968889 C134.389333,64.6168889 131.287111,73.2657778 131.389333,78.9057778 C131.433778,81.2702222 132.180444,89.0124444 140.047111,89.368 C149.064889,89.7902222 151.878222,81.9813333 152.167111,81.0924444 C152.998222,78.5102222 155.802667,77.0524444 158.411556,77.8568889 C161.033778,78.6568889 162.522667,81.3724444 161.731556,83.968 L161.731556,83.968 Z" id="Fill-26"></path>
        </g>
    </g>
</svg>