<?xml version="1.0" encoding="UTF-8" standalone="no"?>
<svg width="179px" height="200px" viewBox="0 0 179 200" version="1.1" xmlns="http://www.w3.org/2000/svg" xmlns:xlink="http://www.w3.org/1999/xlink">
    <!-- Generator: Sketch 40 (33762) - http://www.bohemiancoding.com/sketch -->
    <title>Fill 28</title>
    <desc>Created with Sketch.</desc>
    <defs></defs>
    <g id="Page-1" stroke="none" stroke-width="1" fill="none" fill-rule="evenodd">
        <path d="M170.5881,0 L49.8747501,0 C25.1740859,0 0,9.59713189 0,35.5939604 L0,175.565923 C0,190.154666 7.57015145,200 21.3775194,200 L142.07708,200 C146.241353,200 149.619654,196.621699 149.619654,192.45283 L149.619654,43.2606348 C149.619654,39.0917657 146.241353,35.7134649 142.07708,35.7134649 L24.5168111,35.7134649 C21.2672075,35.7134649 19.7366304,32.767219 20.8903086,29.4808448 C24.4938294,19.1942638 43.1962862,17.8567325 49.8747501,17.8567325 L160.306115,17.8567325 L160.306115,167.857882 L170.992577,167.857882 C174.927033,167.857882 178.116885,164.658838 178.116885,160.715189 L178.116885,7.54716981 C178.116885,3.37830074 174.747777,0 170.5881,0" id="Fill-28" fill="#144273"></path>
    </g>
</svg>