<?xml version="1.0" encoding="UTF-8" standalone="no"?>
<svg width="210px" height="200px" viewBox="0 0 210 200" version="1.1" xmlns="http://www.w3.org/2000/svg" xmlns:xlink="http://www.w3.org/1999/xlink">
    <!-- Generator: Sketch 40.1 (33804) - http://www.bohemiancoding.com/sketch -->
    <title>Fill 1</title>
    <desc>Created with Sketch.</desc>
    <defs></defs>
    <g id="Page-1" stroke="none" stroke-width="1" fill="none" fill-rule="evenodd">
        <path d="M202.084141,23.0774441 L186.83313,23.0774441 L186.83313,7.69248136 C186.83313,3.44513595 183.418096,0 179.206873,0 L60.3715061,0 C41.8017869,0 22.8783731,7.26052241 22.8783731,26.9229322 L22.8783731,59.3755409 C10.1559029,62.4925687 -0.0004,70.2196669 -0.0004,84.6157898 L-0.0004,180.769549 C-0.0004,191.390923 8.53492807,200 19.0644917,200 L102.948811,200 C107.160034,200 110.575069,196.556369 110.575069,192.307519 L110.575069,92.3082712 C110.575069,88.0594207 107.160034,84.6157898 102.948811,84.6157898 L68.632909,84.6157898 L68.632909,130.769173 L53.3803936,119.231203 L38.1293833,130.769173 L38.1293833,84.6157898 L21.6381843,84.6157898 C19.5521387,84.6157898 18.5693192,82.7118593 19.3098203,80.5866815 C21.6246386,73.9432433 33.6352043,73.0778203 37.924692,73.0778203 L125.826079,73.0778203 L125.826079,184.615037 L148.703347,184.615037 C152.91457,184.615037 156.329605,181.171406 156.329605,176.922556 L156.329605,34.6154136 C156.329605,30.3680682 152.91457,26.9229322 148.703347,26.9229322 L44.5154523,26.9229322 C42.4294067,26.9229322 41.4465872,25.0190017 42.1870882,22.895329 C44.5019065,16.2503857 56.5124722,15.3849627 60.80196,15.3849627 L171.580615,15.3849627 L171.580615,161.539098 L179.206873,161.539098 C183.418096,161.539098 186.83313,158.095467 186.83313,153.846617 L186.83313,34.6154136 L198.271764,34.6154136 L198.271764,146.154136 L202.084141,146.154136 C206.295364,146.154136 209.710398,142.710505 209.710398,138.461654 L209.710398,30.7699254 C209.710398,26.5210749 206.295364,23.0774441 202.084141,23.0774441" id="Fill-1" fill="#1D1C1B"></path>
    </g>
</svg>