<?xml version="1.0" encoding="UTF-8" standalone="no"?>
<svg width="200px" height="200px" viewBox="0 0 200 200" version="1.1" xmlns="http://www.w3.org/2000/svg" xmlns:xlink="http://www.w3.org/1999/xlink">
    <!-- Generator: Sketch 40.1 (33804) - http://www.bohemiancoding.com/sketch -->
    <title>Page 1</title>
    <desc>Created with Sketch.</desc>
    <defs></defs>
    <g id="Page-1" stroke="none" stroke-width="1" fill="none" fill-rule="evenodd">
        <path d="M200,175 L200,25 C200,11.25 188.75,0 175,0 L25,0 C11.25,0 0,11.25 0,25 L0,175 C0,188.75 11.25,200 25,200 L175,200 C188.75,200 200,188.75 200,175 L200,175 Z M68.75,93.75 C68.75,104.12 60.38,112.5 50,112.5 L37.5,112.5 L37.5,137.5 L18.75,137.5 L18.75,62.5 L50,62.5 C60.38,62.5 68.75,70.88 68.75,81.25 L68.75,93.75 Z M131.25,118.75 C131.25,129.12 122.88,137.5 112.5,137.5 L81.25,137.5 L81.25,62.5 L112.5,62.5 C122.88,62.5 131.25,70.88 131.25,81.25 L131.25,118.75 Z M181.25,112.5 L162.5,112.5 L162.5,137.5 L143.75,137.5 L143.75,62.5 L181.25,62.5 L181.25,81.25 L162.5,81.25 L162.5,93.75 L181.25,93.75 L181.25,112.5 Z M100,118.75 L112.5,118.75 L112.5,81.25 L100,81.25 L100,118.75 Z M37.5,93.75 L50,93.75 L50,81.25 L37.5,81.25 L37.5,93.75 Z" fill="#000000"></path>
    </g>
</svg>