<?xml version="1.0" encoding="UTF-8" standalone="no"?>
<svg width="181px" height="200px" viewBox="0 0 181 200" version="1.1" xmlns="http://www.w3.org/2000/svg" xmlns:xlink="http://www.w3.org/1999/xlink">
    <!-- Generator: Sketch 40.1 (33804) - http://www.bohemiancoding.com/sketch -->
    <title>Combined Shape</title>
    <desc>Created with Sketch.</desc>
    <defs></defs>
    <g id="Page-1" stroke="none" stroke-width="1" fill="none" fill-rule="evenodd">
        <path d="M150.058478,149.980407 L150.058478,169.982624 L30.0036245,169.982624 L30.0036245,149.980407 L0.0003,149.980407 L0.0003,189.998692 C0.0003,195.52562 4.47447996,199.9998 10.0014082,199.9998 L170.060695,199.9998 C175.601475,199.9998 180.075655,195.52562 180.075655,189.998692 L180.075655,149.980407 L150.058478,149.980407 Z M79.4426205,144.738829 C82.0052313,147.952482 85.9114813,149.836347 90.0393625,149.836347 C94.1533918,149.836347 98.0596418,147.952482 100.622253,144.738829 L158.467997,72.3762406 C162.595878,67.2233151 162.401951,59.8402255 158.010883,54.8950793 C153.619815,49.9776369 146.305985,48.8971848 140.695945,52.4155801 L110.041579,71.5589755 L110.041579,14.1149374 C110.041579,3.24115638 100.636105,-0.0002 90.0393625,-0.0002 C79.4287685,-0.0002 70.0232942,3.24115638 70.0232942,14.1149374 L70.0232942,71.5589755 L39.3689281,52.4155801 C33.7450363,48.9110367 26.4450584,49.9776369 22.0539902,54.8950793 C17.6629219,59.8402255 17.4689946,67.2233151 21.5968758,72.3762406 L79.4426205,144.738829 Z" id="Combined-Shape" fill="#000000"></path>
    </g>
</svg>