<?xml version="1.0" encoding="UTF-8" standalone="no"?>
<svg width="100px" height="100px" viewBox="0 0 100 100" version="1.1" xmlns="http://www.w3.org/2000/svg" xmlns:xlink="http://www.w3.org/1999/xlink">
    <!-- Generator: Sketch 40 (33762) - http://www.bohemiancoding.com/sketch -->
    <title>Fill 1</title>
    <desc>Created with Sketch.</desc>
    <defs></defs>
    <g id="Page-1" stroke="none" stroke-width="1" fill="none" fill-rule="evenodd">
        <path d="M97.825,10.8666667 C97.075,6.35833333 93.6416667,2.925 89.1333333,2.175 C76.0833333,0 54.3416667,0 50,0 C45.65,0 23.9083333,0 10.8666667,2.175 C6.35,2.925 2.925,6.35833333 2.175,10.8666667 C0,23.9083333 0,45.65 0,50 C0,54.35 0,76.0833333 2.175,89.1333333 C2.925,93.6416667 6.35,97.075 10.8666667,97.825 C23.9083333,100 45.65,100 50,100 C54.3416667,100 76.0833333,100 89.1333333,97.825 C93.6416667,97.075 97.075,93.6416667 97.825,89.1333333 C100,76.0833333 100,54.35 100,50 C100,36.95 100,23.9083333 97.825,10.8666667 M83.6833333,22.5 L79.0333333,62.025 C78.7166667,64.675 76.575,66.725 73.9166667,66.925 C73.775,66.9416667 73.6333333,66.9416667 73.4916667,66.9416667 C71.0083333,66.9416667 68.7916667,65.275 68.125,62.8416667 L65.5833333,53.5666667 C65.5833333,53.5666667 71.2333333,42.05 71.6916667,41.1083333 C72.1166667,40.25 71.5333333,40.0916667 71.525,40.0916667 L43.8833333,67.7333333 C40.725,70.8916667 37.0583333,69.1083333 33.975,66.025 C30.8916667,62.9416667 29.1,59.2666667 32.2583333,56.1083333 L52.3416667,36.025 L37.15,31.875 C34.5833333,31.1666667 32.8666667,28.7416667 33.0666667,26.0833333 C33.2666667,23.425 35.325,21.275 37.975,20.9666667 L77.5,16.3166667 C79.1916667,16.1166667 80.8833333,16.7 82.0833333,17.9083333 C83.2916667,19.1166667 83.8833333,20.8083333 83.6833333,22.5" id="Fill-1" fill="#B4B4B4"></path>
    </g>
</svg>