<?xml version="1.0" encoding="utf-8"?>
<!-- Generator: Adobe Illustrator 19.2.1, SVG Export Plug-In . SVG Version: 6.00 Build 0)  -->
<svg version="1.1" id="Layer_1" xmlns="http://www.w3.org/2000/svg" xmlns:xlink="http://www.w3.org/1999/xlink" x="0px" y="0px"
	 viewBox="0 0 22 20" style="enable-background:new 0 0 22 20;" xml:space="preserve">
<style type="text/css">
	.st0{fill:#009FE3;}
</style>
<g>
	<path class="st0" d="M11,20c-0.3,0-0.6-0.1-0.9-0.2C2.5,16-0.1,10.4,0,6.4c0.1-2.7,1.4-4.9,3.5-5.7C7-0.9,9.6,0.6,11,2.2
		c1.4-1.6,4-3,7.5-1.5c2.1,0.9,3.4,3,3.5,5.7c0.1,4-2.5,9.6-10.1,13.4C11.6,19.9,11.3,20,11,20z M6.3,2C5.7,2,5,2.1,4.3,2.5
		C2.9,3,2.1,4.5,2,6.4C1.9,9.7,4.2,14.6,11,18c6.8-3.4,9.1-8.4,9-11.6c-0.1-1.9-0.9-3.4-2.3-4c-3.8-1.6-5.7,1.5-5.8,1.9L11,5.9
		l-0.9-1.6C10,4,8.7,2,6.3,2z"/>
</g>
</svg>
