<?xml version="1.0" encoding="UTF-8" standalone="no"?>
<svg width="200px" height="100px" viewBox="0 0 200 100" version="1.1" xmlns="http://www.w3.org/2000/svg" xmlns:xlink="http://www.w3.org/1999/xlink">
    <!-- Generator: Sketch 40.3 (33839) - http://www.bohemiancoding.com/sketch -->
    <title>Fill 1</title>
    <desc>Created with Sketch.</desc>
    <defs></defs>
    <g id="Page-1" stroke="none" stroke-width="1" fill="none" fill-rule="evenodd">
        <path d="M19,50.00004 C19,32.90004 32.9,19.00004 50,19.00004 L90,19.00004 L90,4e-05 L50,4e-05 C22.4,4e-05 0,22.40004 0,50.00004 C0,77.60004 22.4,100.00004 50,100.00004 L90,100.00004 L90,81.00004 L50,81.00004 C32.9,81.00004 19,67.10004 19,50.00004 L19,50.00004 Z M60,60.00004 L140,60.00004 L140,40.00004 L60,40.00004 L60,60.00004 Z M150,4e-05 L110,4e-05 L110,19.00004 L150,19.00004 C167.1,19.00004 181,32.90004 181,50.00004 C181,67.10004 167.1,81.00004 150,81.00004 L110,81.00004 L110,100.00004 L150,100.00004 C177.6,100.00004 200,77.60004 200,50.00004 C200,22.40004 177.6,4e-05 150,4e-05 L150,4e-05 Z" id="Fill-1" fill="#B4B4B4"></path>
    </g>
</svg>