<?xml version="1.0" encoding="UTF-8" standalone="no"?>
<svg width="200px" height="200px" viewBox="0 0 200 200" version="1.1" xmlns="http://www.w3.org/2000/svg" xmlns:xlink="http://www.w3.org/1999/xlink">
    <!-- Generator: Sketch 40.3 (33839) - http://www.bohemiancoding.com/sketch -->
    <title>Combined Shape</title>
    <desc>Created with Sketch.</desc>
    <defs></defs>
    <g id="Page-1" stroke="none" stroke-width="1" fill="none" fill-rule="evenodd">
        <path d="M0,22.2166667 L200,22.2166667 L200,0 L0,0 L0,22.2166667 Z M0,66.6666667 L72.3833333,66.6666667 L72.3833333,44.45 L0,44.45 L0,66.6666667 Z M0,111.1 L72.3833333,111.1 L72.3833333,88.8833333 L0,88.8833333 L0,111.1 Z M0,155.55 L72.3833333,155.55 L72.3833333,133.316667 L0,133.316667 L0,155.55 Z M0,200 L200,200 L200,177.783333 L0,177.783333 L0,200 Z M200,143.153333 L200,56.7866667 C200,49.9533333 194.466667,44.4533333 187.666667,44.4533333 L101.283333,44.4533333 C94.4833333,44.4533333 88.9666667,49.9533333 88.9666667,56.7866667 L88.9666667,143.153333 C88.9666667,149.97 94.4833333,155.47 101.283333,155.47 L187.666667,155.47 C194.466667,155.47 200,149.97 200,143.153333 Z M122.9,109.22 L138.3,127.77 L159.916667,99.97 L187.666667,136.986667 L101.283333,136.986667 L122.9,109.22 Z" id="Combined-Shape" fill="#535353"></path>
    </g>
</svg>