<?xml version="1.0" encoding="UTF-8" standalone="no"?>
<svg width="200px" height="200px" viewBox="0 0 200 200" version="1.1" xmlns="http://www.w3.org/2000/svg" xmlns:xlink="http://www.w3.org/1999/xlink">
    <!-- Generator: Sketch 40.1 (33804) - http://www.bohemiancoding.com/sketch -->
    <title>Fill 1</title>
    <desc>Created with Sketch.</desc>
    <defs></defs>
    <g id="Page-1" stroke="none" stroke-width="1" fill="none" fill-rule="evenodd">
        <path d="M195.6501,21.7412667 C194.1501,12.7162667 187.283433,5.85793333 178.258433,4.3496 C152.1751,-0.0004 108.691767,-0.0004 100.0001,-0.0004 C91.3001,-0.0004 47.8251,-0.0004 21.7334333,4.3496 C12.7167667,5.85793333 5.8501,12.7162667 4.3501,21.7412667 C0.0001,47.8246 0.0001,91.3079333 0.0001,99.9996 C0.0001,108.6996 0.0001,152.1746 4.3501,178.266267 C5.8501,187.282933 12.7167667,194.1496 21.7334333,195.657933 C47.8251,199.9996 91.3001,199.9996 100.0001,199.9996 C108.691767,199.9996 152.1751,199.9996 178.258433,195.657933 C187.283433,194.1496 194.1501,187.282933 195.6501,178.266267 C200.0001,152.1746 200.0001,108.6996 200.0001,99.9996 C200.0001,73.8996 200.0001,47.8246 195.6501,21.7412667 L195.6501,21.7412667 Z M113.1251,170.0246 L84.4001,170.0246 L86.8667667,108.757933 L86.8667667,73.7412667 L113.1251,73.7412667 L113.1251,170.0246 Z M100.1001,56.2412667 C90.2917667,56.2412667 84.6834333,50.7579333 84.6834333,40.7329333 C84.6834333,32.2246 89.8834333,25.6079333 99.9001,25.6079333 C109.708433,25.6079333 115.316767,30.8996 115.316767,40.7329333 C115.316767,49.4329333 110.108433,56.2412667 100.1001,56.2412667 L100.1001,56.2412667 Z" id="Fill-1" fill="#000000"></path>
    </g>
</svg>