<?xml version="1.0" encoding="UTF-8" standalone="no"?>
<svg width="200px" height="200px" viewBox="0 0 200 200" version="1.1" xmlns="http://www.w3.org/2000/svg" xmlns:xlink="http://www.w3.org/1999/xlink">
    <!-- Generator: Sketch 40.3 (33839) - http://www.bohemiancoding.com/sketch -->
    <title>Shape</title>
    <desc>Created with Sketch.</desc>
    <defs></defs>
    <g id="Page-1" stroke="none" stroke-width="1" fill="none" fill-rule="evenodd">
        <path d="M90,150 L110,150 L110,90 L90,90 L90,150 L90,150 Z M100,0 C44.8,0 0,44.8 0,100 C0,155.2 44.8,200 100,200 C155.2,200 200,155.2 200,100 C200,44.8 155.2,0 100,0 L100,0 Z M100,180 C55.9,180 20,144.1 20,100 C20,55.9 55.9,20 100,20 C144.1,20 180,55.9 180,100 C180,144.1 144.1,180 100,180 L100,180 Z M90,70 L110,70 L110,50 L90,50 L90,70 L90,70 Z" id="Shape" fill="#000000"></path>
    </g>
</svg>