<?xml version="1.0" encoding="UTF-8" standalone="no"?>
<svg width="153px" height="200px" viewBox="0 0 153 200" version="1.1" xmlns="http://www.w3.org/2000/svg" xmlns:xlink="http://www.w3.org/1999/xlink">
    <!-- Generator: Sketch 40.1 (33804) - http://www.bohemiancoding.com/sketch -->
    <title>Page 1</title>
    <desc>Created with Sketch.</desc>
    <defs></defs>
    <g id="Page-1" stroke="none" stroke-width="1" fill="none" fill-rule="evenodd">
        <path d="M133.329099,66.6709007 L123.802568,66.6709007 L123.802568,47.6284229 C123.802568,21.3351963 102.473723,0.00635102093 76.191081,0.00635102093 C49.8978544,0.00635102093 28.5690091,21.3351963 28.5690091,47.6284229 L28.5690091,66.6709007 L19.0424777,66.6709007 C8.56329322,66.6709007 0,75.2447789 0,85.7133784 L0,180.957522 C0,191.436707 8.56329322,200 19.0424777,200 L133.329099,200 C143.808284,200 152.371577,191.436707 152.371577,180.957522 L152.371577,85.7133784 C152.371577,75.2447789 143.808284,66.6709007 133.329099,66.6709007 L133.329099,66.6709007 Z M76.191081,152.388513 C65.7118965,152.388513 57.1380183,143.814635 57.1380183,133.33545 C57.1380183,122.856266 65.7118965,114.292973 76.191081,114.292973 C86.6596805,114.292973 95.2335588,122.856266 95.2335588,133.33545 C95.2335588,143.814635 86.6596805,152.388513 76.191081,152.388513 L76.191081,152.388513 Z M105.712743,66.6709007 L46.6588337,66.6709007 L46.6588337,47.6284229 C46.6588337,31.3380543 59.9007124,18.0961756 76.191081,18.0961756 C92.4708647,18.0961756 105.712743,31.3380543 105.712743,47.6284229 L105.712743,66.6709007 Z" fill="#B4B4B4"></path>
    </g>
</svg>