<?xml version="1.0" encoding="UTF-8" standalone="no"?>
<svg width="100px" height="100px" viewBox="0 0 100 100" version="1.1" xmlns="http://www.w3.org/2000/svg" xmlns:xlink="http://www.w3.org/1999/xlink">
    <!-- Generator: Sketch 40 (33762) - http://www.bohemiancoding.com/sketch -->
    <title>Fill 1</title>
    <desc>Created with Sketch.</desc>
    <defs></defs>
    <g id="Page-1" stroke="none" stroke-width="1" fill="none" fill-rule="evenodd">
        <path d="M39.3897423,69.9423918 L47.2215642,77.7742138 L75.003922,50.0001 L47.2215642,22.2177422 L39.3897423,30.0578082 L53.7260984,44.4436284 L-0.0002,44.4436284 L-0.0002,55.5565716 L53.7260984,55.5565716 L39.3897423,69.9423918 Z M88.8868569,0.0001 L11.1127431,0.0001 C4.94621385,0.0001 -0.0002,4.99597799 -0.0002,11.1130431 L-0.0002,33.3306853 L11.1127431,33.3306853 L11.1127431,11.1130431 L88.8868569,11.1130431 L88.8868569,88.8871569 L11.1127431,88.8871569 L11.1127431,66.6612707 L-0.0002,66.6612707 L-0.0002,88.8871569 C-0.0002,94.995978 4.94621385,100.0001 11.1127431,100.0001 L88.8868569,100.0001 C95.003922,100.0001 99.9998,94.995978 99.9998,88.8871569 L99.9998,11.1130431 C99.9998,4.99597799 95.003922,0.0001 88.8868569,0.0001 L88.8868569,0.0001 Z" id="Fill-1" fill="#000000"></path>
    </g>
</svg>