<?xml version="1.0" encoding="UTF-8" standalone="no"?>
<svg width="310px" height="390px" viewBox="0 0 310 390" version="1.1" xmlns="http://www.w3.org/2000/svg" xmlns:xlink="http://www.w3.org/1999/xlink">
    <!-- Generator: Sketch 39.1 (31720) - http://www.bohemiancoding.com/sketch -->
    <title>Combined Shape</title>
    <desc>Created with Sketch.</desc>
    <defs></defs>
    <g id="Page-1" stroke="none" stroke-width="1" fill="none" fill-rule="evenodd">
        <path d="M305.459164,120.229646 L190.53995,4.57124571 C187.634807,1.64513143 183.691164,0.000445714286 179.579236,0.000445714286 L15.5006643,0.000445714286 C6.94023571,0.000445714286 0.000664285714,6.98478857 0.000664285714,15.6004457 L0.000664285714,374.400446 C0.000664285714,383.016103 6.94023571,390.000446 15.5006643,390.000446 L294.500664,390.000446 C303.025664,390.000446 310.000664,382.975989 310.000664,374.400446 L310.000664,131.263303 C310.000664,127.122617 308.364307,123.153531 305.459164,120.229646 Z M295.649879,135.403989 L271.250664,142.675817 L271.250664,351.000446 L38.7506643,351.000446 L38.7506643,39.0004457 L168.239879,39.0004457 L175.460664,14.54856 C176.304307,11.8921029 178.250664,12.7456457 178.250664,12.7456457 L178.250664,124.800446 C178.250664,129.106046 181.72045,132.600446 186.000664,132.600446 L297.343807,132.600446 C297.343807,132.600446 298.293736,134.552674 295.649879,135.403989 Z M155,234.72072 C132.011286,234.72072 112.069429,250.331863 102.158286,266.999349 C100.149929,270.377863 103.652929,274.349177 107.131571,272.55072 C119.976643,265.914034 136.701143,262.461977 155,262.461977 C173.298857,262.461977 190.023357,265.914034 202.868429,272.552949 C206.347071,274.349177 209.850071,270.377863 207.841714,266.999349 C197.930571,250.331863 177.988714,234.72072 155,234.72072 Z M131.75,183.3 C131.75,172.529314 123.074429,163.8 112.375,163.8 C101.675571,163.8 93,172.529314 93,183.3 C93,194.070686 101.675571,202.8 112.375,202.8 C123.074429,202.8 131.75,194.070686 131.75,183.3 Z M197.625,163.8 C186.925571,163.8 178.25,172.529314 178.25,183.3 C178.25,194.070686 186.925571,202.8 197.625,202.8 C208.324429,202.8 217,194.070686 217,183.3 C217,172.529314 208.324429,163.8 197.625,163.8 Z" id="Combined-Shape" fill="#009FE4"></path>
    </g>
</svg>