<?xml version="1.0" encoding="UTF-8" standalone="no"?>
<svg width="201px" height="169px" viewBox="0 0 201 169" version="1.1" xmlns="http://www.w3.org/2000/svg" xmlns:xlink="http://www.w3.org/1999/xlink">
    <!-- Generator: Sketch 40.3 (33839) - http://www.bohemiancoding.com/sketch -->
    <title>Fill 1</title>
    <desc>Created with Sketch.</desc>
    <defs></defs>
    <g id="Page-1" stroke="none" stroke-width="1" fill="none" fill-rule="evenodd">
        <path d="M0.3753,-0.0003 L0.3753,10.5265698 L10.9021698,10.5265698 L10.9021698,42.1177062 L21.4290397,42.1177062 L21.4290397,-0.0003 L0.3753,-0.0003 Z M52.9991223,31.5908364 L200.3753,31.5908364 L200.3753,10.5265698 L52.9991223,10.5265698 L52.9991223,31.5908364 Z M0.3753,63.160919 L0.3753,73.6877888 L19.3236657,73.6877888 L0.3753,95.7942155 L0.3753,105.268398 L31.9559095,105.268398 L31.9559095,94.7415285 L13.0075438,94.7415285 L31.9559095,72.6351019 L31.9559095,63.160919 L0.3753,63.160919 Z M52.9991223,94.7415285 L200.3753,94.7415285 L200.3753,73.6877888 L52.9991223,73.6877888 L52.9991223,94.7415285 Z M0.3753,126.332665 L0.3753,136.859535 L21.4290397,136.859535 L21.4290397,142.112443 L10.9021698,142.112443 L10.9021698,152.639313 L21.4290397,152.639313 L21.4290397,157.902748 L0.3753,157.902748 L0.3753,168.429617 L31.9559095,168.429617 L31.9559095,126.332665 L0.3753,126.332665 Z M52.9991223,157.902748 L200.3753,157.902748 L200.3753,136.849008 L52.9991223,136.849008 L52.9991223,157.902748 Z" id="Fill-1" fill="#B4B4B4"></path>
    </g>
</svg>