<?xml version="1.0" encoding="UTF-8" standalone="no"?>
<svg width="200px" height="48px" viewBox="0 0 200 48" version="1.1" xmlns="http://www.w3.org/2000/svg" xmlns:xlink="http://www.w3.org/1999/xlink">
    <!-- Generator: Sketch 40.1 (33804) - http://www.bohemiancoding.com/sketch -->
    <title>Combined Shape</title>
    <desc>Created with Sketch.</desc>
    <defs></defs>
    <g id="Page-1" stroke="none" stroke-width="1" fill="none" fill-rule="evenodd">
        <path d="M23.8073505,47.6212447 C36.9555849,47.6212447 47.6143011,36.9625286 47.6143011,23.8142942 C47.6143011,10.6660598 36.9555849,-0.00011 23.8073505,-0.00011 C10.6591161,-0.00011 0.0004,10.6660598 0.0004,23.8142942 C0.0004,36.9625286 10.6591161,47.6212447 23.8073505,47.6212447 Z M100.000773,47.6212447 C113.149007,47.6212447 123.807723,36.9625286 123.807723,23.8142942 C123.807723,10.6660598 113.149007,-0.00011 100.000773,-0.00011 C86.8525383,-0.00011 76.1938222,10.6660598 76.1938222,23.8142942 C76.1938222,36.9625286 86.8525383,47.6212447 100.000773,47.6212447 Z M176.193449,47.6212447 C189.341684,47.6212447 200.0004,36.9625286 200.0004,23.8142942 C200.0004,10.6660598 189.341684,-0.00011 176.193449,-0.00011 C163.045215,-0.00011 152.386499,10.6660598 152.386499,23.8142942 C152.386499,36.9625286 163.045215,47.6212447 176.193449,47.6212447 Z" id="Combined-Shape" fill="#000000"></path>
    </g>
</svg>