<?xml version="1.0" encoding="UTF-8" standalone="no"?>
<svg width="200px" height="200px" viewBox="0 0 200 200" version="1.1" xmlns="http://www.w3.org/2000/svg" xmlns:xlink="http://www.w3.org/1999/xlink">
    <!-- Generator: Sketch 40.1 (33804) - http://www.bohemiancoding.com/sketch -->
    <title>Combined Shape</title>
    <desc>Created with Sketch.</desc>
    <defs></defs>
    <g id="Page-1" stroke="none" stroke-width="1" fill="none" fill-rule="evenodd">
        <path d="M99.556944,200 C154.540949,200 199.113888,155.228812 199.113888,99.9984981 C199.113888,44.7711878 154.540949,0 99.556944,0 C44.572939,0 0,44.7711878 0,99.9984981 C0,155.228812 44.572939,200 99.556944,200 Z M144.304702,106.325338 L85.556974,150.048211 C84.1812475,151.069492 82.544193,151.592148 80.8951234,151.592148 C79.6906117,151.592148 78.4861001,151.315801 77.3717015,150.751093 C74.7283841,149.414415 73.0612919,146.699007 73.0612919,143.725275 L73.0612919,56.2795308 C73.0612919,53.3057988 74.7283841,50.5873872 77.3717015,49.2507096 C80.0060075,47.9080246 83.1779884,48.1813676 85.556974,49.9565955 L144.304702,93.6794677 C146.299206,95.1663337 147.476683,97.5092741 147.476683,100.002403 C147.476683,102.495532 146.299206,104.838472 144.304702,106.325338 Z" id="Combined-Shape" fill="#000000"></path>
    </g>
</svg>