<?xml version="1.0" encoding="UTF-8" standalone="no"?>
<svg width="200px" height="200px" viewBox="0 0 200 200" version="1.1" xmlns="http://www.w3.org/2000/svg" xmlns:xlink="http://www.w3.org/1999/xlink">
    <!-- Generator: Sketch 39.1 (31720) - http://www.bohemiancoding.com/sketch -->
    <title>Combined Shape</title>
    <desc>Created with Sketch.</desc>
    <defs></defs>
    <g id="Page-1" stroke="none" stroke-width="1" fill="none" fill-rule="evenodd">
        <path d="M100,200 C155.226667,200 200,155.226667 200,100 C200,44.7733333 155.226667,0 100,0 C44.7733333,0 0,44.7733333 0,100 C0,155.226667 44.7733333,200 100,200 Z M143.652667,80.8926667 C135.072667,78.9526667 124.786,77.2993333 115.219333,76.1993333 C110.952667,67.446 107.092667,59.5726667 103.139333,51.4393333 C102.479333,50.0926667 101.332667,49.4126667 99.9993333,49.4126667 C98.6726667,49.4126667 97.5193333,50.0926667 96.866,51.4393333 C92.906,59.5726667 89.046,67.446 84.7793333,76.1993333 C75.2126667,77.2993333 64.926,78.9526667 56.346,80.8926667 C53.4326667,81.586 52.3726667,85.5193333 54.3326667,87.6993333 C60.2126667,94.1993333 67.2393333,101.619333 74.346,108.759333 C72.2126667,118.786 70.166,128.352667 68.3126667,137.032667 C67.8326667,139.966 71.2193333,142.059333 74.046,140.739333 C82.5993333,136.886 91.8926667,132.566 99.9993333,127.192667 C108.106,132.566 117.399333,136.886 125.959333,140.739333 C128.786,142.059333 132.166,139.966 131.686,137.032667 C129.832667,128.352667 127.786,118.786 125.652667,108.759333 C132.759333,101.619333 139.786,94.1993333 145.666,87.6993333 C147.626,85.5193333 146.566,81.586 143.652667,80.8926667 Z" id="Combined-Shape" fill="#00C6FF"></path>
    </g>
</svg>