<?xml version="1.0" encoding="utf-8"?>
<!-- Generator: Adobe Illustrator 19.2.1, SVG Export Plug-In . SVG Version: 6.00 Build 0)  -->
<svg version="1.1" id="Layer_1" xmlns="http://www.w3.org/2000/svg" xmlns:xlink="http://www.w3.org/1999/xlink" x="0px" y="0px"
	 viewBox="0 0 200 192" style="enable-background:new 0 0 200 192;" xml:space="preserve">
<metadata><?xpacket begin="﻿" id="W5M0MpCehiHzreSzNTczkc9d"?>
<x:xmpmeta xmlns:x="adobe:ns:meta/" x:xmptk="Adobe XMP Core 5.6-c111 79.158366, 2015/09/25-01:12:00        ">
   <rdf:RDF xmlns:rdf="http://www.w3.org/1999/02/22-rdf-syntax-ns#">
      <rdf:Description rdf:about=""/>
   </rdf:RDF>
</x:xmpmeta>
                                                                                                    
                                                                                                    
                                                                                                    
                                                                                                    
                                                                                                    
                                                                                                    
                                                                                                    
                                                                                                    
                                                                                                    
                                                                                                    
                                                                                                    
                                                                                                    
                                                                                                    
                                                                                                    
                                                                                                    
                                                                                                    
                                                                                                    
                                                                                                    
                                                                                                    
                                                                                                    
                           
<?xpacket end="w"?></metadata>
<style type="text/css">
	.st0{fill-rule:evenodd;clip-rule:evenodd;}
</style>
<path class="st0" d="M164.5,78L100,25.8L35.5,78H14v114h172V78H164.5z M73,168H41v-19h32V168z M73,137H41v-35h32V137z M116,168H84
	v-19h32V168z M116,137H84v-35h32V137z M100,83c-9.1,0-16.4-7.4-16.4-16.4c0-9.1,7.4-16.4,16.4-16.4c9.1,0,16.4,7.4,16.4,16.4
	C116.4,75.7,109.1,83,100,83z M159,168h-32v-19h32V168z M159,137h-32v-35h32V137z"/>
<path class="st0" d="M199.6,63.5L157.2,3.3c-1.5-2.1-3.9-3.3-6.4-3.3H49.2c-2.5,0-4.9,1.2-6.4,3.3L0.4,63.5c-0.9,1.3,0,3.1,1.6,3.1
	h27.7l62.5-50.9c4.5-3.8,10.9-3.7,15.7,0l62.5,50.9H198C199.6,66.6,200.6,64.8,199.6,63.5z"/>
</svg>
