<?xml version="1.0" encoding="UTF-8" standalone="no"?>
<svg width="201px" height="161px" viewBox="0 0 201 161" version="1.1" xmlns="http://www.w3.org/2000/svg" xmlns:xlink="http://www.w3.org/1999/xlink">
    <!-- Generator: Sketch 40.3 (33839) - http://www.bohemiancoding.com/sketch -->
    <title>Fill 2</title>
    <desc>Created with Sketch.</desc>
    <defs></defs>
    <g id="Page-1" stroke="none" stroke-width="1" fill="none" fill-rule="evenodd">
        <path d="M16.5912162,65.3648649 C7.61824324,65.3648649 0.375,72.6081081 0.375,81.5810811 C0.375,90.5540541 7.61824324,97.7972973 16.5912162,97.7972973 C25.5641892,97.7972973 32.8074324,90.5540541 32.8074324,81.5810811 C32.8074324,72.6081081 25.5641892,65.3648649 16.5912162,65.3648649 L16.5912162,65.3648649 Z M16.5912162,0.5 C7.61824324,0.5 0.375,7.74324324 0.375,16.7162162 C0.375,25.6891892 7.61824324,32.9324324 16.5912162,32.9324324 C25.5641892,32.9324324 32.8074324,25.6891892 32.8074324,16.7162162 C32.8074324,7.74324324 25.5641892,0.5 16.5912162,0.5 L16.5912162,0.5 Z M16.5912162,132.067568 C8.59121622,132.067568 2.21283784,138.554054 2.21283784,146.445946 C2.21283784,154.337838 8.69932432,160.824324 16.5912162,160.824324 C24.4831081,160.824324 30.9695946,154.337838 30.9695946,146.445946 C30.9695946,138.554054 24.5912162,132.067568 16.5912162,132.067568 L16.5912162,132.067568 Z M49.0236486,157.256757 L200.375,157.256757 L200.375,135.635135 L49.0236486,135.635135 L49.0236486,157.256757 Z M49.0236486,92.3918919 L200.375,92.3918919 L200.375,70.7702703 L49.0236486,70.7702703 L49.0236486,92.3918919 Z M49.0236486,27.527027 L200.375,27.527027 L200.375,5.90540541 L49.0236486,5.90540541 L49.0236486,27.527027 Z" id="Fill-2" fill="#B4B4B4"></path>
    </g>
</svg>