<?xml version="1.0" encoding="UTF-8" standalone="no"?>
<svg width="200px" height="201px" viewBox="0 0 200 201" version="1.1" xmlns="http://www.w3.org/2000/svg" xmlns:xlink="http://www.w3.org/1999/xlink">
    <!-- Generator: Sketch 40.3 (33839) - http://www.bohemiancoding.com/sketch -->
    <title>Fill 1</title>
    <desc>Created with Sketch.</desc>
    <defs></defs>
    <g id="Page-1" stroke="none" stroke-width="1" fill="none" fill-rule="evenodd">
        <path d="M108.774615,15.6472599 L78.5398814,45.8819933 L92.9000435,60.2421555 L123.134777,30.007422 C136.051796,17.0725862 157.075359,17.0725862 169.992378,30.007422 C182.927214,42.9244413 182.927214,63.9480038 169.992378,76.8472065 L139.757645,107.099756 L154.117807,121.459919 L184.35254,91.2251852 C205.215753,70.3797885 205.215753,36.5104731 184.35254,15.6472599 C163.489327,-5.2159533 129.620011,-5.2159533 108.774615,15.6472599 L108.774615,15.6472599 Z M77.7381354,137.38794 L138.207602,76.9006562 L123.081327,61.7921978 L62.629677,122.243848 L77.7381354,137.38794 Z M39.3077759,53.5965717 L69.5425094,83.8313052 L84.6509678,68.7050302 L54.4340509,38.4702968 L39.3077759,53.5965717 Z M115.794347,130.083143 L146.02908,160.317876 L161.137539,145.191601 L130.920622,114.956868 L115.794347,130.083143 Z M30.007522,169.992278 C17.0905028,157.075259 17.0905028,136.069513 30.007522,123.134677 L60.2422555,92.882127 L45.8820933,78.5219648 L15.6473599,108.774515 C-5.2158533,129.619911 -5.2158533,163.507043 15.6473599,184.370257 C36.5105731,205.23347 70.3798885,205.23347 91.2431018,184.370257 L121.477835,154.117707 L107.117673,139.775361 L76.865123,169.992278 C63.9481038,182.927114 42.9245413,182.927114 30.007522,169.992278 L30.007522,169.992278 Z" id="Fill-1" fill="#CCCCCC"></path>
    </g>
</svg>